<svg id="visual" viewBox="0 0 900 600" width="900" height="600" xmlns="http://www.w3.org/2000/svg" xmlns:xlink="http://www.w3.org/1999/xlink" version="1.1"><rect x="0" y="0" width="900" height="600" fill="#001122"></rect><path d="M0 140L4.8 136.8C9.7 133.7 19.3 127.3 29 124.3C38.7 121.3 48.3 121.7 58 124.8C67.7 128 77.3 134 87 141.7C96.7 149.3 106.3 158.7 116 164.3C125.7 170 135.3 172 145 167C154.7 162 164.3 150 174 145C183.7 140 193.3 142 203 141.2C212.7 140.3 222.3 136.7 232 136.3C241.7 136 251.3 139 261 143C270.7 147 280.3 152 290 153.5C299.7 155 309.3 153 319 147.5C328.7 142 338.3 133 348 133.2C357.7 133.3 367.3 142.7 377 144.7C386.7 146.7 396.3 141.3 406 139.7C415.7 138 425.3 140 435.2 140.3C445 140.7 455 139.3 464.8 140.2C474.7 141 484.3 144 494 149.3C503.7 154.7 513.3 162.3 523 162.7C532.7 163 542.3 156 552 153.5C561.7 151 571.3 153 581 148.3C590.7 143.7 600.3 132.3 610 132.8C619.7 133.3 629.3 145.7 639 149.7C648.7 153.7 658.3 149.3 668 148.3C677.7 147.3 687.3 149.7 697 147.2C706.7 144.7 716.3 137.3 726 134.8C735.7 132.3 745.3 134.7 755 141.2C764.7 147.7 774.3 158.3 784 163C793.7 167.7 803.3 166.3 813 167.8C822.7 169.3 832.3 173.7 842 168.8C851.7 164 861.3 150 871 145.2C880.7 140.3 890.3 144.7 895.2 146.8L900 149L900 0L895.2 0C890.3 0 880.7 0 871 0C861.3 0 851.7 0 842 0C832.3 0 822.7 0 813 0C803.3 0 793.7 0 784 0C774.3 0 764.7 0 755 0C745.3 0 735.7 0 726 0C716.3 0 706.7 0 697 0C687.3 0 677.7 0 668 0C658.3 0 648.7 0 639 0C629.3 0 619.7 0 610 0C600.3 0 590.7 0 581 0C571.3 0 561.7 0 552 0C542.3 0 532.7 0 523 0C513.3 0 503.7 0 494 0C484.3 0 474.7 0 464.8 0C455 0 445 0 435.2 0C425.3 0 415.7 0 406 0C396.3 0 386.7 0 377 0C367.3 0 357.7 0 348 0C338.3 0 328.7 0 319 0C309.3 0 299.7 0 290 0C280.3 0 270.7 0 261 0C251.3 0 241.7 0 232 0C222.3 0 212.7 0 203 0C193.3 0 183.7 0 174 0C164.3 0 154.7 0 145 0C135.3 0 125.7 0 116 0C106.3 0 96.7 0 87 0C77.3 0 67.7 0 58 0C48.3 0 38.7 0 29 0C19.3 0 9.7 0 4.8 0L0 0Z" fill="#bdff5a" stroke-linecap="round" stroke-linejoin="miter"></path></svg>