<svg id="visual" viewBox="0 0 960 540" width="960" height="540" xmlns="http://www.w3.org/2000/svg" xmlns:xlink="http://www.w3.org/1999/xlink" version="1.1"><rect x="0" y="0" width="960" height="540" fill="#FCAF3C"></rect><path d="M0 402L22.8 400.5C45.7 399 91.3 396 137 388C182.7 380 228.3 367 274 355.2C319.7 343.3 365.3 332.7 411.2 340.5C457 348.3 503 374.7 548.8 375.3C594.7 376 640.3 351 686 346.8C731.7 342.7 777.3 359.3 823 368.5C868.7 377.7 914.3 379.3 937.2 380.2L960 381L960 541L937.2 541C914.3 541 868.7 541 823 541C777.3 541 731.7 541 686 541C640.3 541 594.7 541 548.8 541C503 541 457 541 411.2 541C365.3 541 319.7 541 274 541C228.3 541 182.7 541 137 541C91.3 541 45.7 541 22.8 541L0 541Z" fill="#88fa69"></path><path d="M0 364L22.8 369.2C45.7 374.3 91.3 384.7 137 390.3C182.7 396 228.3 397 274 401.5C319.7 406 365.3 414 411.2 415.3C457 416.7 503 411.3 548.8 410.8C594.7 410.3 640.3 414.7 686 415.7C731.7 416.7 777.3 414.3 823 409.3C868.7 404.3 914.3 396.7 937.2 392.8L960 389L960 541L937.2 541C914.3 541 868.7 541 823 541C777.3 541 731.7 541 686 541C640.3 541 594.7 541 548.8 541C503 541 457 541 411.2 541C365.3 541 319.7 541 274 541C228.3 541 182.7 541 137 541C91.3 541 45.7 541 22.8 541L0 541Z" fill="#5fe173"></path><path d="M0 407L22.8 411.3C45.7 415.7 91.3 424.3 137 429.2C182.7 434 228.3 435 274 438C319.7 441 365.3 446 411.2 442.7C457 439.3 503 427.7 548.8 424.7C594.7 421.7 640.3 427.3 686 425.2C731.7 423 777.3 413 823 416.2C868.7 419.3 914.3 435.7 937.2 443.8L960 452L960 541L937.2 541C914.3 541 868.7 541 823 541C777.3 541 731.7 541 686 541C640.3 541 594.7 541 548.8 541C503 541 457 541 411.2 541C365.3 541 319.7 541 274 541C228.3 541 182.7 541 137 541C91.3 541 45.7 541 22.8 541L0 541Z" fill="#3ac878"></path><path d="M0 470L22.8 464.2C45.7 458.3 91.3 446.7 137 441.3C182.7 436 228.3 437 274 441.3C319.7 445.7 365.3 453.3 411.2 461.5C457 469.7 503 478.3 548.8 477.3C594.7 476.3 640.3 465.7 686 461.3C731.7 457 777.3 459 823 456C868.7 453 914.3 445 937.2 441L960 437L960 541L937.2 541C914.3 541 868.7 541 823 541C777.3 541 731.7 541 686 541C640.3 541 594.7 541 548.8 541C503 541 457 541 411.2 541C365.3 541 319.7 541 274 541C228.3 541 182.7 541 137 541C91.3 541 45.7 541 22.8 541L0 541Z" fill="#18ae78"></path><path d="M0 476L22.8 480.3C45.7 484.7 91.3 493.3 137 493.7C182.7 494 228.3 486 274 486.2C319.7 486.3 365.3 494.7 411.2 495.2C457 495.7 503 488.3 548.8 485C594.7 481.7 640.3 482.3 686 484.7C731.7 487 777.3 491 823 490.8C868.7 490.7 914.3 486.3 937.2 484.2L960 482L960 541L937.2 541C914.3 541 868.7 541 823 541C777.3 541 731.7 541 686 541C640.3 541 594.7 541 548.8 541C503 541 457 541 411.2 541C365.3 541 319.7 541 274 541C228.3 541 182.7 541 137 541C91.3 541 45.7 541 22.8 541L0 541Z" fill="#009473"></path></svg>